<svg width="76" height="77" viewBox="0 0 76 77" fill="none" xmlns="http://www.w3.org/2000/svg">
<path fill-rule="evenodd" clip-rule="evenodd" d="M24.792 42.3696H0C1.2972 61.7092 17.6251 77.0001 37.5767 77.0001C57.5283 77.0001 73.8562 61.7092 75.1534 42.3696H50.8287C49.5415 48.2227 44.2019 52.6111 37.8104 52.6111C31.4188 52.6111 26.0792 48.2227 24.792 42.3696Z" fill="#F0F0F0"/>
<path fill-rule="evenodd" clip-rule="evenodd" d="M50.3613 35.3513L75.1533 35.3513C73.8561 16.0117 57.5283 0.720866 37.5766 0.720864C17.625 0.720862 1.29716 16.0117 -3.8147e-05 35.3513L24.3246 35.3513C25.6118 29.4982 30.9514 25.1098 37.343 25.1098C43.7345 25.1099 49.0741 29.4982 50.3613 35.3513Z" fill="#F0F0F0"/>
<ellipse cx="37.3451" cy="38.6461" rx="7.08889" ry="6.98643" fill="#F0F0F0"/>
</svg>
